<svg width="1008" height="1006" viewBox="0 0 1008 1006" fill="none" xmlns="http://www.w3.org/2000/svg">
<path d="M501.869 974.696C762.398 974.696 973.598 763.495 973.598 502.966C973.598 242.437 762.398 31.2369 501.869 31.2369C241.34 31.2369 30.1392 242.437 30.1392 502.966C30.1392 763.495 241.34 974.696 501.869 974.696Z" stroke="black" stroke-width="5"/>
<path d="M356.154 897.895L339.335 889.999L344.5 861.456L333.145 874.381L331.47 886.306L314.651 878.409L320.348 850.116L301.898 872.421L294.95 869.192L325.325 835.233L337.827 841.136L334.777 862.825L349.477 846.573L361.979 852.476L356.154 897.895Z" fill="black"/>
<path d="M276.312 856.922L255.911 842.206C253.276 840.305 251.175 838.368 249.608 836.393C248.025 834.406 246.935 832.438 246.339 830.488C245.727 828.526 245.592 826.607 245.932 824.73C246.273 822.852 247.05 821.072 248.264 819.39C249.763 817.311 251.589 815.817 253.741 814.908C255.881 814.015 258.263 813.79 260.886 814.235L264.019 794.236L279.564 805.449L275.91 822.357L278.814 824.452L288.07 811.621L301.829 821.546L276.312 856.922ZM274.873 828.16C273.746 827.347 272.624 826.779 271.506 826.455C270.388 826.132 269.314 826.032 268.283 826.157C267.24 826.298 266.266 826.645 265.36 827.198C264.443 827.767 263.641 828.528 262.954 829.48C262.268 830.432 261.805 831.425 261.566 832.459C261.315 833.509 261.293 834.543 261.5 835.561C261.695 836.594 262.123 837.59 262.783 838.549C263.443 839.507 264.336 840.393 265.463 841.206L266.272 841.79L275.706 828.761L274.873 828.16Z" fill="black"/>
<path d="M222.415 814.994L210.05 803.334L239.998 771.621L252.341 783.262L222.415 814.994Z" fill="black"/>
<path d="M193.345 775.941L201.33 785.488L196.174 789.8L169.319 757.694L174.475 753.381L182.46 762.927L210.784 739.236L221.669 752.25L193.345 775.941Z" fill="black"/>
<path d="M156.779 740L137.371 708.655L143.086 705.117L153.547 722.012L163.57 715.841L155.566 702.913L161.281 699.375L169.285 712.302L179.218 706.152L168.741 689.232L174.456 685.693L193.864 717.038L156.779 740Z" fill="black"/>
<path d="M140.897 641.354L116.252 665.693L110.093 648.163L127.745 630.575L103.662 629.858L101.113 622.602L134.982 624.517L146.585 620.44L152.501 637.278L140.897 641.354Z" fill="black"/>
<path d="M117.181 599.73C113.927 600.316 110.858 600.332 107.974 599.778C105.071 599.227 102.462 598.096 100.145 596.386C97.8291 594.676 95.8542 592.377 94.2208 589.49C92.5873 586.603 91.4029 583.118 90.6675 579.035C89.9322 574.952 89.8263 571.273 90.3498 567.997C90.8733 564.721 91.9221 561.878 93.4961 559.467C95.07 557.056 97.1211 555.086 99.6493 553.557C102.158 552.031 105.04 550.975 108.295 550.389C111.588 549.796 114.696 549.773 117.618 550.321C120.54 550.868 123.159 551.997 125.475 553.707C127.791 555.418 129.766 557.716 131.4 560.604C133.033 563.491 134.218 566.976 134.953 571.059C135.688 575.142 135.794 578.821 135.271 582.096C134.747 585.372 133.699 588.215 132.125 590.626C130.551 593.037 128.49 595.009 125.942 596.542C123.395 598.074 120.475 599.137 117.181 599.73ZM128.973 572.136C128.765 570.98 128.379 569.996 127.815 569.183C127.251 568.37 126.328 567.77 125.046 567.385C123.763 567 122.035 566.844 119.861 566.917C117.687 566.99 114.886 567.336 111.458 567.953C108.069 568.564 105.352 569.212 103.308 569.898C101.265 570.584 99.7187 571.33 98.6707 572.135C97.6227 572.94 96.9763 573.822 96.7314 574.781C96.4865 575.74 96.4682 576.797 96.6763 577.953C96.8844 579.108 97.2722 580.102 97.8396 580.934C98.4036 581.747 99.3172 582.348 100.58 582.737C101.843 583.126 103.552 583.286 105.707 583.216C107.862 583.146 110.634 582.806 114.023 582.195C117.451 581.578 120.197 580.924 122.26 580.234C124.323 579.545 125.888 578.796 126.955 577.987C128.022 577.178 128.678 576.295 128.923 575.336C129.165 574.358 129.181 573.291 128.973 572.136Z" fill="black"/>
<path d="M85.0518 530.866L84.7745 513.902L112.48 513.449C114.045 513.424 115.402 513.196 116.549 512.766C117.677 512.317 118.617 511.715 119.368 510.959C120.099 510.184 120.642 509.284 120.997 508.261C121.352 507.237 121.52 506.139 121.501 504.965C121.48 503.673 121.275 502.522 120.886 501.511C120.498 500.48 119.916 499.608 119.141 498.897C118.366 498.185 117.398 497.643 116.238 497.271C115.077 496.899 113.714 496.725 112.148 496.751L84.5016 497.203L84.3961 490.746L111.045 490.31C113.745 490.266 116.188 490.667 118.375 491.512C120.56 492.337 122.439 493.539 124.011 495.118C125.564 496.698 126.769 498.616 127.628 500.872C128.487 503.128 128.939 505.655 128.985 508.453C129.047 512.269 128.7 515.552 127.942 518.305C127.165 521.057 126.038 523.327 124.56 525.112C123.063 526.898 121.245 528.219 119.106 529.076C116.967 529.933 114.548 530.384 111.847 530.428L85.0518 530.866Z" fill="black"/>
<path d="M85.8296 466.303L89.4227 441.406C89.8867 438.19 90.6309 435.431 91.6554 433.127C92.6827 430.804 93.9224 428.927 95.3746 427.495C96.8296 426.045 98.4679 425.035 100.29 424.468C102.111 423.9 104.049 423.765 106.102 424.061C108.639 424.427 110.809 425.353 112.611 426.839C114.394 428.322 115.696 430.329 116.517 432.86L135.692 426.374L132.954 445.345L116.277 449.937L115.765 453.482L131.424 455.741L129.001 472.533L85.8296 466.303ZM110.654 451.706C110.852 450.331 110.836 449.073 110.605 447.932C110.374 446.792 109.965 445.794 109.376 444.938C108.769 444.079 108.01 443.376 107.1 442.83C106.171 442.281 105.126 441.922 103.964 441.754C102.802 441.587 101.707 441.636 100.68 441.903C99.6334 442.167 98.7071 442.627 97.9008 443.282C97.0752 443.933 96.3904 444.774 95.8465 445.803C95.3027 446.831 94.9315 448.033 94.733 449.408L94.5905 450.396L110.507 452.723L110.654 451.706Z" fill="black"/>
<path d="M106.341 369.611L115.661 346.245C116.865 343.228 118.234 340.72 119.769 338.719C121.312 336.701 122.957 335.166 124.703 334.114C126.458 333.044 128.287 332.447 130.191 332.321C132.095 332.196 134.01 332.517 135.937 333.286C138.318 334.236 140.21 335.644 141.615 337.51C143.001 339.369 143.797 341.625 144.003 344.278L164.164 342.46L157.062 360.263L139.773 360.825L138.446 364.151L153.141 370.013L146.856 385.771L106.341 369.611ZM133.892 361.228C134.407 359.938 134.685 358.711 134.728 357.548C134.77 356.385 134.606 355.319 134.234 354.349C133.845 353.372 133.271 352.511 132.515 351.767C131.74 351.016 130.807 350.422 129.717 349.987C128.626 349.552 127.551 349.345 126.49 349.364C125.41 349.376 124.402 349.606 123.465 350.053C122.51 350.494 121.647 351.151 120.878 352.024C120.108 352.896 119.466 353.978 118.951 355.269L118.582 356.196L133.511 362.182L133.892 361.228Z" fill="black"/>
<path d="M134.092 306.211L152.884 274.492L158.667 277.918L148.538 295.015L158.65 301.04L166.4 287.958L172.183 291.384L164.433 304.466L174.484 310.42L184.628 293.298L190.411 296.724L171.619 328.443L134.092 306.211Z" fill="black"/>
<path d="M182.679 252.439L170.97 249.35L182.32 235.54L229.609 246.746L217.438 261.554L209.991 259.612L199.069 272.901L202.435 279.808L197.72 285.546L182.679 252.439ZM202.841 257.725L190.085 254.384L195.852 266.229L202.841 257.725Z" fill="black"/>
<path d="M210.904 204.312L223.497 192.899L248.253 220.257L260.607 209.061L265.121 214.041L240.196 236.631L210.904 204.312Z" fill="black"/>
<path d="M252.276 169.148L266.083 159.238L291.494 194.69L277.711 204.583L252.276 169.148Z" fill="black"/>
<path d="M296.16 148.071L285.265 154.086L282.016 148.202L318.659 127.971L321.908 133.855L311.013 139.871L328.861 172.197L314.008 180.397L296.16 148.071Z" fill="black"/>
<path d="M358.502 144.902L333.621 120.804L351.01 114.257L368.987 131.514L369.168 107.42L376.365 104.71L375.204 138.613L379.538 150.123L362.836 156.412L358.502 144.902Z" fill="black"/>
<path d="M397.427 99.1383L412.869 95.4341L418.511 118.954L403.069 122.658L397.427 99.1383ZM405.072 135.791C404.858 134.897 404.818 134.021 404.955 133.163C405.106 132.281 405.465 131.471 406.032 130.731C406.613 129.968 407.415 129.282 408.436 128.675C409.458 128.068 410.749 127.577 412.309 127.203C413.85 126.833 415.214 126.687 416.4 126.765C417.605 126.838 418.63 127.085 419.476 127.506C420.317 127.908 420.995 128.47 421.51 129.192C422.04 129.89 422.412 130.686 422.626 131.58C422.845 132.494 422.879 133.391 422.729 134.272C422.592 135.13 422.243 135.938 421.68 136.697C421.113 137.437 420.309 138.113 419.269 138.725C418.247 139.332 416.966 139.82 415.425 140.19C413.864 140.564 412.491 140.713 411.305 140.635C410.119 140.557 409.096 140.319 408.236 139.922C407.391 139.501 406.703 138.942 406.174 138.244C405.658 137.522 405.291 136.704 405.072 135.791Z" fill="black"/>
<path d="M496.141 85.519L513.136 85.5696L512.977 129.188L496.011 129.137L496.141 85.519Z" fill="black"/>
<path d="M538.48 86.0227L550.347 87.837L563.203 112.904L582.149 92.6989L593.697 94.4645L587.105 137.582L570.363 135.022L573.73 112.999L554.204 133.116L541.638 108.093L538.272 130.116L531.888 129.14L538.48 86.0227Z" fill="black"/>
<path d="M628.338 116.018L627.167 103.964L644.06 109.812L649.975 158.048L631.863 151.778L631.097 144.121L614.842 138.494L609.533 144.049L602.516 141.62L628.338 116.018ZM630.383 136.76L629.086 123.638L619.981 133.16L630.383 136.76Z" fill="black"/>
<path d="M671.282 143.795C672.268 141.97 673.448 140.339 674.824 138.903C676.227 137.458 677.78 136.251 679.483 135.28C681.185 134.309 683.025 133.579 685.002 133.09C686.979 132.6 689.043 132.381 691.195 132.431C693.365 132.49 695.6 132.841 697.9 133.482C700.209 134.107 702.543 135.056 704.902 136.329C706.418 137.147 707.813 138.023 709.088 138.956C710.381 139.899 711.545 140.872 712.582 141.877C713.627 142.864 714.546 143.861 715.338 144.866C716.155 145.864 716.856 146.831 717.439 147.769L712.875 150.909C712.162 149.923 711.269 148.941 710.197 147.961C709.151 146.974 707.965 146.123 706.639 145.407C704.866 144.449 703.049 143.88 701.19 143.699C699.331 143.518 697.534 143.715 695.8 144.291C694.066 144.867 692.429 145.818 690.89 147.144C689.378 148.462 688.064 150.154 686.948 152.221C685.841 154.27 685.147 156.297 684.865 158.302C684.593 160.289 684.678 162.17 685.121 163.944C685.591 165.71 686.398 167.324 687.543 168.788C688.714 170.243 690.178 171.445 691.934 172.393L698.949 159.401L714.007 167.532L708.685 170.963L703.051 181.398L703.049 181.463C701.935 181.507 700.633 181.427 699.143 181.222C697.652 181.018 696.038 180.691 694.301 180.243C692.59 179.786 690.814 179.205 688.971 178.499C687.128 177.793 685.303 176.952 683.495 175.976C679.965 174.07 677.058 171.833 674.775 169.266C672.518 166.691 670.883 163.973 669.87 161.113C668.866 158.236 668.477 155.312 668.702 152.343C668.953 149.365 669.813 146.516 671.282 143.795Z" fill="black"/>
<path d="M741.288 159.474L755.079 169.406L729.564 204.784L715.797 194.869L741.288 159.474Z" fill="black"/>
<path d="M774.744 184.417L782.464 191.718L786.599 227.628L802.595 210.759L807.286 215.196L777.314 246.885L769.594 239.584L765.377 203.718L749.463 220.543L744.771 216.106L774.744 184.417Z" fill="black"/>
<path d="M824.622 234.884L847.101 264.105L841.774 268.203L829.657 252.453L820.31 259.607L829.581 271.658L824.253 275.757L814.982 263.706L805.723 270.829L817.857 286.603L812.53 290.701L790.05 261.48L824.622 234.884Z" fill="black"/>
<path d="M869.954 325.145L877.83 315.946L885.325 332.175L854.659 369.876L846.622 352.474L851.611 346.614L844.399 330.998L836.715 331.022L833.602 324.28L869.954 325.145ZM856.421 340.997L864.98 330.966L851.806 331.004L856.421 340.997Z" fill="black"/>
<path d="M887.588 401.884C889.617 401.453 891.624 401.296 893.61 401.414C895.619 401.547 897.545 401.948 899.388 402.616C901.23 403.284 902.978 404.213 904.631 405.402C906.285 406.591 907.789 408.021 909.145 409.694C910.505 411.385 911.686 413.315 912.687 415.482C913.708 417.646 914.497 420.039 915.054 422.661C915.412 424.346 915.649 425.976 915.764 427.552C915.883 429.147 915.896 430.665 915.802 432.105C915.728 433.542 915.564 434.887 915.31 436.141C915.08 437.411 914.797 438.571 914.46 439.623L909.112 438.18C909.401 436.998 909.571 435.681 909.622 434.23C909.697 432.794 909.577 431.339 909.264 429.865C908.845 427.893 908.102 426.141 907.035 424.607C905.969 423.073 904.655 421.832 903.093 420.884C901.531 419.936 899.746 419.305 897.739 418.992C895.755 418.693 893.614 418.789 891.317 419.277C889.04 419.761 887.046 420.546 885.336 421.63C883.645 422.709 882.267 423.993 881.203 425.479C880.162 426.981 879.455 428.642 879.081 430.462C878.731 432.297 878.764 434.191 879.179 436.143C879.472 437.521 879.928 438.865 880.547 440.173C881.184 441.478 881.903 442.646 882.702 443.676L878.404 447.171C877.649 446.351 876.911 445.418 876.188 444.372C875.465 443.325 874.77 442.172 874.102 440.914C873.453 439.651 872.861 438.277 872.325 436.79C871.789 435.304 871.341 433.719 870.983 432.034C870.149 428.11 869.97 424.447 870.447 421.045C870.947 417.657 871.958 414.652 873.48 412.027C875.022 409.398 876.997 407.208 879.405 405.455C881.836 403.718 884.564 402.528 887.588 401.884Z" fill="black"/>
<path d="M920.171 459.093L921.389 476.044L884.586 478.66L885.781 495.29L879.076 495.772L876.665 462.22L920.171 459.093Z" fill="black"/>
<path d="M922.338 513.346L921.625 530.326L878.046 528.466L878.758 511.515L922.338 513.346Z" fill="black"/>
<path d="M920.184 555.635L917.908 567.423L892.359 579.292L911.81 599.011L909.596 610.481L866.768 602.213L869.979 585.584L891.853 589.807L872.513 569.511L898.007 557.931L876.132 553.708L877.356 547.367L920.184 555.635Z" fill="black"/>
<path d="M886.707 644.255L898.797 643.556L892.295 660.207L843.864 664.238L850.836 646.383L858.518 645.916L864.774 629.893L859.43 624.372L862.131 617.454L886.707 644.255ZM865.9 645.49L879.063 644.705L869.904 635.236L865.9 645.49Z" fill="black"/>
<path d="M865.173 702.235L871.391 691.455L877.214 694.813L856.301 731.071L850.478 727.713L856.696 716.932L824.71 698.483L833.186 683.786L865.173 702.235Z" fill="black"/>
<path d="M843.999 748.931L821.239 777.935L815.951 773.786L828.219 758.152L818.977 750.863L809.591 762.825L804.302 758.675L813.689 746.713L804.498 739.501L792.213 755.158L786.924 751.008L809.684 722.005L843.999 748.931Z" fill="black"/>
<path d="M772.236 797.306C773.558 798.904 774.627 800.61 775.442 802.425C776.255 804.267 776.792 806.159 777.053 808.102C777.314 810.045 777.3 812.024 777.012 814.04C776.724 816.056 776.153 818.052 775.299 820.028C774.43 822.017 773.267 823.957 771.809 825.848C770.364 827.755 768.609 829.562 766.543 831.271C765.216 832.369 763.881 833.334 762.538 834.166C761.179 835.01 759.84 835.724 758.52 836.308C757.212 836.907 755.944 837.385 754.715 837.741C753.483 838.125 752.323 838.412 751.235 838.601L750.037 833.192C751.219 832.901 752.464 832.442 753.774 831.815C755.082 831.216 756.316 830.436 757.477 829.476C759.03 828.191 760.24 826.721 761.105 825.065C761.97 823.41 762.461 821.67 762.578 819.847C762.695 818.023 762.428 816.149 761.776 814.225C761.121 812.329 760.045 810.476 758.549 808.666C757.064 806.872 755.446 805.468 753.693 804.454C751.953 803.456 750.178 802.829 748.367 802.575C746.554 802.348 744.754 802.49 742.969 803.002C741.18 803.542 739.517 804.448 737.979 805.72C736.893 806.618 735.914 807.644 735.04 808.799C734.179 809.968 733.477 811.146 732.934 812.332L727.846 810.141C728.223 809.092 728.708 808.005 729.301 806.88C729.894 805.755 730.593 804.605 731.399 803.43C732.218 802.27 733.161 801.109 734.23 799.945C735.299 798.781 736.497 797.651 737.824 796.553C740.915 793.996 744.079 792.141 747.315 790.988C750.549 789.862 753.682 789.366 756.713 789.5C759.756 789.649 762.613 790.384 765.281 791.707C767.947 793.057 770.265 794.923 772.236 797.306Z" fill="black"/>
<path d="M727.344 833.378C729.026 836.225 730.109 839.097 730.593 841.993C731.087 844.906 730.935 847.746 730.137 850.513C729.34 853.28 727.872 855.931 725.734 858.467C723.596 861.003 720.741 863.326 717.169 865.436C713.597 867.547 710.185 868.926 706.932 869.575C703.678 870.225 700.648 870.231 697.84 869.594C695.032 868.958 692.471 867.72 690.158 865.882C687.854 864.061 685.862 861.727 684.18 858.88C682.477 855.999 681.375 853.093 680.871 850.163C680.367 847.233 680.514 844.385 681.312 841.618C682.109 838.852 683.577 836.2 685.715 833.664C687.853 831.128 690.708 828.805 694.28 826.695C697.852 824.584 701.264 823.205 704.517 822.556C707.77 821.907 710.801 821.9 713.609 822.537C716.417 823.173 718.983 824.419 721.306 826.274C723.629 828.129 725.642 830.497 727.344 833.378ZM697.371 831.926C696.36 832.523 695.571 833.228 695.005 834.039C694.439 834.851 694.199 835.925 694.284 837.261C694.369 838.598 694.824 840.272 695.649 842.285C696.474 844.297 697.773 846.803 699.545 849.802C701.297 852.767 702.85 855.088 704.204 856.765C705.559 858.442 706.796 859.632 707.915 860.335C709.035 861.037 710.087 861.336 711.071 861.232C712.055 861.128 713.052 860.777 714.063 860.18C715.074 859.583 715.871 858.873 716.454 858.052C717.02 857.24 717.265 856.174 717.19 854.855C717.115 853.536 716.67 851.878 715.855 849.882C715.039 847.887 713.756 845.406 712.004 842.441C710.232 839.442 708.664 837.095 707.299 835.401C705.935 833.707 704.688 832.501 703.559 831.782C702.429 831.063 701.372 830.755 700.388 830.859C699.387 830.973 698.382 831.329 697.371 831.926Z" fill="black"/>
<path d="M673.622 887.742L650.126 896.726C647.092 897.886 644.319 898.579 641.808 898.806C639.278 899.04 637.035 898.871 635.078 898.3C633.102 897.736 631.423 896.796 630.04 895.481C628.657 894.166 627.596 892.54 626.855 890.602C625.939 888.208 625.692 885.862 626.112 883.564C626.539 881.285 627.658 879.17 629.469 877.221L614.468 863.63L632.371 856.785L644.502 869.116L647.847 867.837L642.197 853.059L658.044 847L673.622 887.742ZM648.785 873.166C647.487 873.663 646.397 874.289 645.513 875.046C644.629 875.803 643.957 876.647 643.495 877.577C643.041 878.526 642.797 879.531 642.762 880.592C642.735 881.671 642.931 882.758 643.35 883.855C643.77 884.952 644.346 885.884 645.079 886.651C645.819 887.436 646.672 888.022 647.636 888.407C648.608 888.811 649.675 889 650.838 888.974C652.002 888.948 653.232 888.687 654.53 888.191L655.462 887.835L649.745 872.799L648.785 873.166Z" fill="black"/>
<path d="M607.985 910.481L587.43 914.72C583.639 915.522 580.302 915.86 577.419 915.735C574.521 915.634 572.05 915.134 570.007 914.237C567.964 913.339 566.337 912.086 565.126 910.478C563.9 908.893 563.064 907.017 562.617 904.851C562.226 902.954 562.253 901.05 562.698 899.14C563.128 897.253 564.041 895.477 565.436 893.81C566.811 892.148 568.702 890.659 571.108 889.344C573.495 888.033 576.452 887.013 579.978 886.286L585.44 885.16L582.559 871.188L599.176 867.762L607.985 910.481ZM586.733 891.427C585.414 891.719 584.277 892.163 583.321 892.76C582.369 893.376 581.61 894.102 581.043 894.938C580.48 895.793 580.117 896.747 579.955 897.8C579.777 898.875 579.814 900.026 580.067 901.253C580.316 902.46 580.733 903.513 581.318 904.412C581.903 905.31 582.631 906.029 583.501 906.569C584.357 907.132 585.343 907.508 586.461 907.697C587.56 907.89 588.765 907.871 590.076 907.641L586.733 891.427Z" fill="black"/>
<path d="M540.87 887.888C538.746 886.937 536.536 886.254 534.243 885.841C531.949 885.427 529.825 885.269 527.871 885.368C525.623 885.481 523.998 885.886 522.994 886.583C521.971 887.281 521.488 888.187 521.544 889.301C521.562 889.653 521.648 890.011 521.804 890.375C521.94 890.741 522.202 891.09 522.591 891.423C522.962 891.777 523.478 892.113 524.141 892.432C524.785 892.772 525.624 893.093 526.658 893.393L531.995 894.918C535.813 896.019 538.724 897.616 540.73 899.71C542.737 901.823 543.817 904.394 543.969 907.423C544.067 909.378 543.751 911.275 543.021 913.114C542.291 914.973 541.13 916.628 539.538 918.08C537.946 919.551 535.911 920.76 533.431 921.708C530.931 922.657 527.981 923.216 524.581 923.387C522.9 923.472 521.283 923.455 519.729 923.337C518.175 923.22 516.716 923.038 515.352 922.794C513.968 922.55 512.699 922.251 511.545 921.898C510.392 921.564 509.375 921.223 508.496 920.875L511.374 914.999C512.019 915.359 512.701 915.667 513.419 915.925C514.118 916.184 514.824 916.393 515.538 916.553C516.232 916.715 516.913 916.827 517.583 916.891C518.252 916.956 518.86 916.974 519.408 916.947C520.346 916.899 521.16 916.731 521.851 916.442C522.543 916.172 523.123 915.819 523.591 915.384C524.04 914.97 524.379 914.502 524.607 913.981C524.817 913.481 524.91 912.986 524.885 912.498C524.864 912.068 524.745 911.653 524.529 911.252C524.294 910.872 523.923 910.499 523.415 910.132C522.888 909.787 522.214 909.438 521.393 909.088C520.553 908.758 519.517 908.418 518.285 908.069L514.708 907.073C510.833 905.994 507.833 904.391 505.708 902.265C503.583 900.138 502.441 897.491 502.282 894.325C502.174 892.176 502.562 890.167 503.448 888.3C504.314 886.435 505.672 884.789 507.52 883.364C509.37 881.958 511.702 880.812 514.518 879.926C517.316 879.06 520.591 878.533 524.343 878.344C526.141 878.254 527.886 878.264 529.576 878.375C531.246 878.467 532.892 878.659 534.513 878.95C536.115 879.241 537.702 879.632 539.275 880.121C540.847 880.61 542.425 881.197 544.007 881.882L540.87 887.888Z" fill="black"/>
<path d="M480.977 922.666L465.141 921.485L466.939 897.365L482.775 898.546L480.977 922.666ZM484.872 885.427C484.804 886.345 484.574 887.191 484.182 887.966C483.77 888.76 483.181 889.422 482.415 889.954C481.629 890.503 480.656 890.912 479.498 891.179C478.34 891.445 476.961 891.519 475.361 891.4C473.78 891.282 472.437 891.005 471.331 890.57C470.206 890.133 469.305 889.585 468.628 888.926C467.95 888.287 467.475 887.545 467.205 886.7C466.913 885.874 466.801 885.002 466.87 884.085C466.94 883.148 467.181 882.283 467.593 881.49C467.985 880.715 468.564 880.051 469.331 879.5C470.097 878.969 471.068 878.57 472.246 878.305C473.404 878.038 474.773 877.963 476.354 878.081C477.954 878.201 479.307 878.478 480.413 878.914C481.518 879.349 482.42 879.888 483.118 880.528C483.795 881.187 484.279 881.93 484.571 882.756C484.841 883.6 484.942 884.491 484.872 885.427Z" fill="black"/>
<path d="M829.23 500.873C829.23 681.614 683.448 828.095 503.663 828.095C323.878 828.095 178.095 681.614 178.095 500.873C178.095 320.132 323.878 173.65 503.663 173.65C683.448 173.65 829.23 320.132 829.23 500.873Z" stroke="black" stroke-width="9"/>
<path d="M374.398 672.15C336.167 671.906 304.953 659.554 280.756 635.097C256.801 610.639 244.823 578.477 244.823 538.61C244.823 498.5 256.801 466.215 280.756 441.757C304.953 417.299 336.893 405.071 376.576 405.071C409 405.071 437.673 413.386 462.596 430.018L469.855 481.746H466.588C461.265 460.712 450.497 444.57 434.285 433.319C418.073 421.824 398.837 416.077 376.576 416.077C344.878 416.077 319.471 427.205 300.355 449.462C281.482 471.718 272.045 501.19 272.045 537.877C272.045 574.563 281.361 604.157 299.992 626.659C318.866 648.915 343.668 660.41 374.398 661.144C401.499 661.144 424.123 653.685 442.27 638.765C461.87 622.623 473.726 596.331 477.84 559.889H480.744L476.388 617.487C454.369 653.929 420.372 672.15 374.398 672.15Z" fill="black"/>
<path d="M514.833 565.318C475.881 565.074 444.078 552.723 419.424 528.265C395.017 503.807 382.814 471.645 382.814 431.778C382.814 391.668 395.017 359.383 419.424 334.925C444.078 310.468 476.621 298.239 517.052 298.239C550.088 298.239 579.302 306.554 604.695 323.186L612.092 374.914H608.763C603.34 353.88 592.369 337.738 575.851 326.487C559.333 314.992 539.734 309.245 517.052 309.245C484.756 309.245 458.87 320.373 439.394 342.63C420.164 364.886 410.549 394.358 410.549 431.045C410.549 467.731 420.041 497.326 439.024 519.827C458.254 542.083 483.524 553.578 514.833 554.312C542.445 554.312 565.496 546.853 583.987 531.933C603.956 515.791 616.036 489.499 620.227 453.057H623.186L618.748 510.655C596.313 547.097 561.675 565.318 514.833 565.318Z" fill="black"/>
<path d="M657.276 672.15C618.324 671.906 586.521 659.554 561.867 635.097C537.46 610.639 525.257 578.477 525.257 538.61C525.257 498.5 537.46 466.215 561.867 441.757C586.521 417.299 619.063 405.071 659.495 405.071C692.531 405.071 721.745 413.386 747.138 430.018L754.534 481.746H751.206C745.782 460.712 734.812 444.57 718.294 433.319C701.776 421.824 682.176 416.077 659.495 416.077C627.199 416.077 601.313 427.205 581.837 449.462C562.607 471.718 552.992 501.19 552.992 537.877C552.992 574.563 562.484 604.157 581.467 626.659C600.697 648.915 625.966 660.41 657.276 661.144C684.888 661.144 707.939 653.685 726.429 638.765C746.399 622.623 758.479 596.331 762.67 559.889H765.628L761.191 617.487C738.756 653.929 704.118 672.15 657.276 672.15Z" fill="black"/>
</svg>
