<svg width="280" height="280" viewBox="0 0 280 280" fill="none" xmlns="http://www.w3.org/2000/svg">
<rect width="280" height="280" fill="white"/>
<path d="M76.07 231C57.4611 230.881 42.2678 224.869 30.49 212.964C18.83 201.06 13 185.405 13 166C13 146.476 18.83 130.762 30.49 118.857C42.2678 106.952 57.8144 101 77.13 101C92.9122 101 106.869 105.048 119 113.143L122.533 138.321H120.943C118.352 128.083 113.111 120.226 105.22 114.75C97.3289 109.155 87.9656 106.357 77.13 106.357C61.7011 106.357 49.3344 111.774 40.03 122.607C30.8433 133.44 26.25 147.786 26.25 165.643C26.25 183.5 30.7844 197.905 39.8533 208.857C49.04 219.69 61.1122 225.286 76.07 225.643C89.2611 225.643 100.273 222.012 109.107 214.75C118.647 206.893 124.418 194.095 126.42 176.357H127.833L125.713 204.393C114.996 222.131 98.4478 231 76.07 231Z" fill="black"/>
<path d="M144.427 179C125.467 178.881 109.987 172.869 97.9867 160.964C86.1067 149.06 80.1667 133.405 80.1667 114C80.1667 94.4762 86.1067 78.7619 97.9867 66.8571C109.987 54.9524 125.827 49 145.507 49C161.587 49 175.807 53.0476 188.167 61.1429L191.767 86.3214H190.147C187.507 76.0833 182.167 68.2262 174.127 62.75C166.087 57.1548 156.547 54.3571 145.507 54.3571C129.787 54.3571 117.187 59.7738 107.707 70.6071C98.3467 81.4405 93.6667 95.7857 93.6667 113.643C93.6667 131.5 98.2867 145.905 107.527 156.857C116.887 167.69 129.187 173.286 144.427 173.643C157.867 173.643 169.087 170.012 178.087 162.75C187.807 154.893 193.687 142.095 195.727 124.357H197.167L195.007 152.393C184.087 170.131 167.227 179 144.427 179Z" fill="black"/>
<path d="M213.76 231C194.8 230.881 179.32 224.869 167.32 212.964C155.44 201.06 149.5 185.405 149.5 166C149.5 146.476 155.44 130.762 167.32 118.857C179.32 106.952 195.16 101 214.84 101C230.92 101 245.14 105.048 257.5 113.143L261.1 138.321H259.48C256.84 128.083 251.5 120.226 243.46 114.75C235.42 109.155 225.88 106.357 214.84 106.357C199.12 106.357 186.52 111.774 177.04 122.607C167.68 133.44 163 147.786 163 165.643C163 183.5 167.62 197.905 176.86 208.857C186.22 219.69 198.52 225.286 213.76 225.643C227.2 225.643 238.42 222.012 247.42 214.75C257.14 206.893 263.02 194.095 265.06 176.357H266.5L264.34 204.393C253.42 222.131 236.56 231 213.76 231Z" fill="black"/>
</svg>
