<svg width="280" height="280" viewBox="0 0 280 280" fill="none" xmlns="http://www.w3.org/2000/svg">
<style>
  path {
    fill: #FFFFFF;
  }

  @media (prefers-color-scheme: dark) {
    path {
      fill: #FAFF00;
    }
  }
</style>

<rect width="280" height="280" fill="white"/>
<circle cx="140" cy="140" r="136.5" stroke="black" stroke-width="7"/>
<circle cx="141" cy="139" r="108" stroke="black" stroke-width="6"/>
<path d="M70 139.935C70 126.919 72.5718 115.843 77.7153 106.706C82.8589 97.5685 88.9762 93 96.0673 93C98.2645 93 100.337 93.6896 102.284 95.0688C104.232 96.448 105.655 97.7409 106.554 98.9477C107.453 100.155 108.552 101.878 109.85 104.12L113.595 94.5516C113.995 93.5172 114.394 93 114.794 93C115.193 93 115.418 93.2155 115.468 93.6465C115.568 93.9913 115.618 94.8102 115.618 96.1032V126.747C115.618 128.126 115.568 128.988 115.468 129.333C115.368 129.678 115.019 129.85 114.419 129.85C113.92 129.85 113.62 129.721 113.52 129.462C113.421 129.204 113.321 128.6 113.221 127.652C112.472 118.343 110.599 110.929 107.603 105.413C104.607 99.8097 101.036 97.0083 96.8913 97.0083C95.6928 97.0083 94.4194 97.2669 93.071 97.784C91.7727 98.215 90.1497 99.3356 88.2022 101.146C86.3045 102.87 84.6067 105.197 83.1085 108.128C81.6604 111.059 80.387 115.282 79.2883 120.799C78.2397 126.316 77.7153 132.738 77.7153 140.065C77.7153 147.305 78.2397 153.727 79.2883 159.33C80.387 164.847 81.6604 169.071 83.1085 172.001C84.6067 174.846 86.3045 177.173 88.2022 178.983C90.1497 180.707 91.7976 181.828 93.1459 182.345C94.4943 182.776 95.7677 182.992 96.9662 182.992C101.261 182.992 105.056 180.363 108.352 175.105C111.648 169.846 113.445 162.778 113.745 153.9C113.795 153.469 113.82 153.167 113.82 152.994C113.82 152.822 113.845 152.65 113.895 152.477C113.945 152.219 114.02 152.046 114.12 151.96C114.269 151.874 114.444 151.831 114.644 151.831C115.293 151.831 115.618 152.564 115.618 154.029C115.618 162.218 113.795 169.76 110.15 176.656C106.504 183.552 101.81 187 96.0673 187C88.9762 187 82.8589 182.475 77.7153 173.424C72.5718 164.287 70 153.124 70 139.935Z" fill="black"/>
<path d="M117.691 139.935C117.691 126.919 120.263 115.843 125.406 106.706C130.55 97.5685 136.667 93 143.758 93C145.956 93 148.028 93.6896 149.976 95.0688C151.923 96.448 153.346 97.7409 154.245 98.9477C155.144 100.155 156.243 101.878 157.541 104.12L161.286 94.5516C161.686 93.5172 162.085 93 162.485 93C162.884 93 163.109 93.2155 163.159 93.6465C163.259 93.9913 163.309 94.8102 163.309 96.1032V126.747C163.309 128.126 163.259 128.988 163.159 129.333C163.059 129.678 162.71 129.85 162.11 129.85C161.611 129.85 161.311 129.721 161.212 129.462C161.112 129.204 161.012 128.6 160.912 127.652C160.163 118.343 158.29 110.929 155.294 105.413C152.298 99.8097 148.727 97.0083 144.582 97.0083C143.384 97.0083 142.11 97.2669 140.762 97.784C139.464 98.215 137.841 99.3356 135.893 101.146C133.996 102.87 132.298 105.197 130.8 108.128C129.351 111.059 128.078 115.282 126.979 120.799C125.931 126.316 125.406 132.738 125.406 140.065C125.406 147.305 125.931 153.727 126.979 159.33C128.078 164.847 129.351 169.071 130.8 172.001C132.298 174.846 133.996 177.173 135.893 178.983C137.841 180.707 139.489 181.828 140.837 182.345C142.185 182.776 143.459 182.992 144.657 182.992C148.952 182.992 152.747 180.363 156.043 175.105C159.339 169.846 161.137 162.778 161.436 153.9C161.486 153.469 161.511 153.167 161.511 152.994C161.511 152.822 161.536 152.65 161.586 152.477C161.636 152.219 161.711 152.046 161.811 151.96C161.961 151.874 162.135 151.831 162.335 151.831C162.984 151.831 163.309 152.564 163.309 154.029C163.309 162.218 161.486 169.76 157.841 176.656C154.195 183.552 149.501 187 143.758 187C136.667 187 130.55 182.475 125.406 173.424C120.263 164.287 117.691 153.124 117.691 139.935Z" fill="black"/>
<path d="M165.382 139.935C165.382 126.919 167.954 115.843 173.098 106.706C178.241 97.5685 184.358 93 191.45 93C193.647 93 195.719 93.6896 197.667 95.0688C199.614 96.448 201.038 97.7409 201.936 98.9477C202.835 100.155 203.934 101.878 205.232 104.12L208.978 94.5516C209.377 93.5172 209.777 93 210.176 93C210.576 93 210.8 93.2155 210.85 93.6465C210.95 93.9913 211 94.8102 211 96.1032V126.747C211 128.126 210.95 128.988 210.85 129.333C210.75 129.678 210.401 129.85 209.802 129.85C209.302 129.85 209.003 129.721 208.903 129.462C208.803 129.204 208.703 128.6 208.603 127.652C207.854 118.343 205.981 110.929 202.985 105.413C199.989 99.8097 196.418 97.0083 192.274 97.0083C191.075 97.0083 189.802 97.2669 188.453 97.784C187.155 98.215 185.532 99.3356 183.584 101.146C181.687 102.87 179.989 105.197 178.491 108.128C177.043 111.059 175.769 115.282 174.671 120.799C173.622 126.316 173.098 132.738 173.098 140.065C173.098 147.305 173.622 153.727 174.671 159.33C175.769 164.847 177.043 169.071 178.491 172.001C179.989 174.846 181.687 177.173 183.584 178.983C185.532 180.707 187.18 181.828 188.528 182.345C189.877 182.776 191.15 182.992 192.348 182.992C196.643 182.992 200.438 180.363 203.734 175.105C207.03 169.846 208.828 162.778 209.127 153.9C209.177 153.469 209.202 153.167 209.202 152.994C209.202 152.822 209.227 152.65 209.277 152.477C209.327 152.219 209.402 152.046 209.502 151.96C209.652 151.874 209.826 151.831 210.026 151.831C210.675 151.831 211 152.564 211 154.029C211 162.218 209.177 169.76 205.532 176.656C201.886 183.552 197.192 187 191.45 187C184.358 187 178.241 182.475 173.098 173.424C167.954 164.287 165.382 153.124 165.382 139.935Z" fill="black"/>

</svg>
